<?xml version="1.0" encoding="utf-8"?>
<!-- Generator: Adobe Illustrator 25.0.0, SVG Export Plug-In . SVG Version: 6.00 Build 0)  -->
<svg version="1.1" id="Calque_1" xmlns="http://www.w3.org/2000/svg" xmlns:xlink="http://www.w3.org/1999/xlink" x="0px" y="0px"
	 viewBox="0 0 8192 4012.6" style="enable-background:new 0 0 8192 4012.6;" xml:space="preserve">
<style type="text/css">
	.st0{fill:#EAEAEA;}
</style>
<g>
	<path class="st0" d="M1642.3,3576.6c2.2,0.6,4.1,1.9,5.9,1.6c3.3-0.4,6.5-1.2,9.7-2.3c35.7-11.4,71.4-22.8,107.1-34.2
		c18.5-5.9,36.6-12.9,54.4-21c93.4-42.5,190.3-75.7,288.9-103.6c83.1-23.5,167.2-43.3,251.8-60.4c70.2-14.3,140.4-28.9,210.6-42.8
		c58.4-11.6,117-22.7,175.5-33.7c40.2-7.6,80.3-15.1,120.5-22.3c42.2-7.5,84.4-14.6,126.7-21.8c36.3-6.2,72.6-12.5,108.9-18.5
		c28.4-4.7,56.9-9,85.3-13.4c19.9-3.2,39.7-6.4,59.5-9.5c21.8-3.4,43.7-6.9,65.5-10.2c23.8-3.7,47.7-7.3,71.5-10.9
		c23.2-3.4,46.4-6.5,69.6-9.9s46.4-6.7,69.6-10c11.9-1.7,23.9-3.5,35.8-4.7c31.3-3,62.5-7.8,94-9.8c22.8-1.5,45.4-4.2,68-6
		c24.7-2,49.4-3.7,74.2-5.4c32.7-2.3,65.5-4.4,98.3-6.6c28.1-1.9,56.2-3.6,84.3-5.5c24.1-1.6,48.1-3.4,72.2-5.1
		c32.1-2.3,64.2-4.7,96.2-7.1c17.4-1.3,34.8-2.7,52.1-4.1c25.4-2,50.7-4.1,76.2-6.1c4-0.4,8-0.7,12-1.1c36.1-2.6,72.2-5.3,108.3-7.9
		c26-1.9,52.2-3.5,78.2-5.5c27.4-2,54.8-4.2,82.2-6.3c25.4-1.9,50.8-3.6,76.2-5.5c18.7-1.3,37.4-2.8,56.1-4.2
		c26.7-2,53.5-4.2,80.1-6.3c24.1-1.9,48.1-3.5,72.2-5.5c25.4-2,50.7-4.1,76.1-6.4c18-1.6,36-3.3,54-5.4c25.2-3,50.6-6,75.7-9.8
		c27.8-4.2,55.5-9.3,83.1-14.2c46.9-8.3,93.2-18.6,139.3-30.1c131.5-32.6,259.8-75.1,385.4-125.5c32.9-13.2,65.6-27,98.4-40.6
		c18.2-7.5,19.2-9,17.6-28.3c-1-11.4-1.4-22.8-2.3-34.1c-0.9-12.7-1.9-25.4-2.9-38c-0.2-2-0.4-4-0.4-6c-1.7-28.1-3.4-56.2-5-84.3
		c-1.6-26.7-3.1-53.5-4.7-80.3c-0.4-6-0.6-12-3.4-17.6c-0.6-1.3-3.9-2.3-5.2-1.3c-2.6,1.9-5.5,3.8-7.9,6.1
		c-8.7,8.3-17.4,16.7-26.1,25.1c-15,14.5-30.9,27.7-48.2,39.4c-16.6,11.3-32.7,23.3-49.2,34.9c-16.9,12-34.5,23-53,32.6
		c-22.2,11.4-45.4,20-70,24.2c-34.1,5.7-68,5.2-101.2-6.3c-29.8-10.3-55.1-27.3-75.6-51.2c-22.2-25.9-37.4-55.5-45.4-88.6
		c-8.2-34.1-10.3-68.7-6-103.8c4-32,10.9-63.3,21.3-93.9c10.9-32.4,21.7-64.8,32.6-97.2c6.2-18.4,13.7-36.4,22.6-53.7
		c5.8-11.3,11.5-22.7,17.1-34.1c1.8-3.6,3.4-7.3,4.8-11c1.8-4.4-1.3-8.6-5.6-7.9c-4.6,0.8-9.3,1.6-13.8,2.6
		c-38.6,9-76,21.7-110.8,40.9c-30.1,16.5-57.9,36.2-82.8,60c-29.1,27.8-58.2,55.4-87.7,82.9c-50,46.6-100.2,93-150.5,139.2
		c-41,37.6-82.3,74.8-123.8,111.9c-10.5,9.4-21.4,18.4-33,26.3c-20.5,14-41.5,27.1-62.4,40.5c-2.2,1.4-4.9,2.3-7.9,3.7
		c-2.6-1.4-5.9-2.5-8.4-4.5c-20.4-16.3-40.7-32.8-60.9-49.3c-1.5-1.2-2.9-2.7-4.1-4.3c-1.7-2.2-2.6-4.9-1.6-7.5
		c0.9-2.5,2.2-4.9,3.5-7.2c10.7-18.6,21.4-37.1,32.1-55.7c11.2-19.2,24.5-36.8,39.5-53.1c63.9-68.9,131.1-134.2,204.5-193.1
		c47.6-38.2,97.1-73.9,149.6-105.1c16.1-9.6,31.6-20.3,44.4-34.3c2.7-3,5.2-6.1,7.6-9.4c0.7-1,0.6-2.5,0.9-3.8
		c-1.9-0.4-3.8-1.2-5.6-1.1c-1.9,0.2-3.8,1.1-5.6,1.9c-11.8,4.8-23.7,9.1-35.3,14.4c-31.1,14.1-61.3,30.1-90.2,48.5
		c-44.1,28.2-86.1,59.2-125,94.4c-29.8,27-59.6,54.1-89.1,81.3c-40.4,37.2-80.6,74.7-121.2,111.8c-52,47.5-104.5,94.2-157.9,140.1
		c-43.1,37-91,66-142.8,88.9c-12.3,5.4-24.7,10.4-37.4,14.6c-19.8,6.5-40,10.9-61.1,10.4c-43.4-1.1-77.1-19.6-101.5-55.5
		c-10.7-15.7-17.7-33.1-22.2-51.4c-5.3-21.5-8.6-43.3-8.9-65.6c-0.3-18.8,0.6-37.5,2.2-56.2c2.6-29.4,5.4-58.7,8.6-88
		c0.7-6.6,0.3-13.3,0.3-20c0-2.3-3.3-5-5.6-4.9c-2.6,0.1-5.4-0.1-8,0.4c-19.9,3.4-39.4,7.4-58.6,13.7
		c-54.1,17.6-108.3,34.9-162.5,52.2c-22.9,7.2-46.2,13.9-69.3,20.6c-12.3,3.5-24.8,5.7-37.3,7.7c-14.2,2.3-28.1,0.4-41.7-3.7
		c-11.7-3.5-21.5-10.6-29.9-19.6c-8.8-9.4-14.7-20.6-19.9-32.4c-4-8.9-4.5-17.6-1.9-27.3c7-27.3,13-54.7,19.3-82.2
		c0.6-2.6,0.8-5.2,1.1-7.9c0.3-2.1-3.4-5.3-5.5-4.7c-4.4,1.4-9,2.7-13.2,4.6c-16.6,7.2-32.3,16.2-46.9,27
		c-15.2,11.1-29.4,23.3-42.7,36.6c-21.9,21.8-42.3,44.9-59.8,70.4c-12.5,18.2-24.7,36.7-36.2,55.6c-35.6,58.6-64,120.6-88.2,184.7
		c-27.8,73.4-50.7,148.2-68.1,224.8c-2.8,12.4-5.8,24.8-8.7,37.1c-0.3,1.3-0.6,2.6-1,3.9c-1.5,4.8-4.1,8.4-9.4,9.4
		c-12.4,2.5-25,5-37.4,7.5c-5.9,1.1-11.8,2.2-17.7,3.4c-8.3,1.5-11.7-0.3-13.6-7.7c-3.5-14.3-6.8-28.7-10.2-43
		c-2.1-8.6-2.3-17.3-1.2-25.9c6.6-55.9,15.6-111.4,30.5-165.8c20.9-75.9,49.6-148.7,90.4-216.2c25.7-42.4,51.3-84.9,80.3-125.1
		c29-40.3,60.5-78.5,95.9-113.5c22.9-22.7,47.7-43.1,73.9-61.9c18-12.9,37-24.3,57-33.8c18.7-8.9,37.3-18.2,56-27.3
		c4.8-2.3,9.7-4.3,14.7-6.5c2.6,1.2,5.4,1.9,7.5,3.4c20.6,15,41.1,30.1,61.6,45.1c4.7,3.4,6.7,8,6.6,13.9c-0.2,6,0.1,12.1,0.1,18.1
		c0,28.9,0,57.6,0,86.5c0,5.4,0,10.8,0.1,16.1c0.2,17.6,2.6,19.5,20,18.1c20.1-1.6,39.7-6,59.2-10.8c40.4-9.9,79.5-23.9,117.8-39.9
		c40.8-17,81.5-34.1,122.3-51.2c2.5-1.1,4.9-2.2,7.3-3.2c3.3-1.2,5.6-3.5,7.2-6.6c3.5-6.4,7.2-12.9,10.7-19.4
		c13.3-25.5,26.7-51,40-76.6c18.4-35.7,38.2-70.8,58.1-105.6c32.7-57.5,73.9-108.4,122.3-153.5c35.9-33.4,74.8-63,115.4-90.4
		c18.4-12.4,37.9-22.7,59.5-28.6c15.7-4.3,31.5-5.9,47.7-2.5c19.6,4.1,36.2,13.8,50.3,27.7c3.4,3.4,5.3,7.7,6.9,12.1
		c6.8,18.5,9.5,37.6,8.6,57.3c-0.9,18.9-5.3,37.1-12.1,54.7c-6.5,16.9-14.6,33.1-23.4,48.9c-23,41.7-48.5,81.8-78.6,119
		c-45.8,56.6-98,106.3-158,147.9c-18.2,12.6-36.5,24.9-55.1,37c-32.6,21.3-65.3,42.2-97.9,63.3c-2.3,1.4-4.5,2.9-6.7,4.5
		c-2.8,2-4.6,4.9-5.5,8.2c-0.8,3.3-1.7,6.5-2.1,9.8c-5.2,40.5-11.1,81-15.4,121.6c-4.5,43.5-3.1,87,6.6,130
		c1.1,5.2,2.9,10.3,4.5,15.4c0.6,1.9,4.5,4.1,6.5,3.8c2.6-0.4,5.4-0.6,7.9-1.5c19-6.5,38-12.9,56.8-20c10-3.8,19.5-8.8,28.9-13.9
		c8.8-4.8,17.3-10.1,25.8-15.6c56.3-36.3,112.1-73.4,166.7-112.3c66.1-47,130.6-96,193.5-147.4c64.4-52.6,126.6-107.7,186.9-164.8
		c28.7-27.3,58.5-53.2,89.8-77.4c25-19.2,50.8-37.1,77.1-54.4c26.6-17.6,55.2-30.1,86.1-37.4c20.8-4.9,41.7-9.5,62.7-14.1
		c3.3-0.7,6.6-1,10-1.1c3.4-0.2,6.6,1,9,3.6c2.3,2.5,4.5,4.9,6.7,7.4c14.6,16.7,29.1,33.3,43.7,49.9c1.8,2,3.4,4.1,5.3,6
		c4,4.1,8.6,6,14.6,4.9c15.1-2.9,30.3-5.6,45.4-8.5c1.3-0.3,2.6-0.8,3.9-1c27.5-4.4,23.5-7.9,40.1,14.4c10,13.4,20.2,26.7,30.4,40.1
		c2,2.6,4.2,5.3,6.8,7.3c1.3,1.1,3.7,1,5.6,0.8c1.2-0.1,2.6-1,3.5-1.8c3.5-3.1,7-6.3,10.4-9.4c40.1-37.5,80.3-75,120.5-112.5
		c10.3-9.6,20.6-19.1,31-28.7c6.7-6.2,10.3-6,16.9,1.1c15.4,16.8,30.7,33.6,46.1,50.5c0.9,1,1.8,2,2.6,3.1c3.3,4.1,3.4,8.6,0.1,12.9
		c-0.8,1.1-1.7,2-2.6,3.1c-0.9,1.1-1.8,2-2.6,3c-54.9,61.5-106.7,125.7-158.3,189.9c-21.8,27.2-42.7,55.1-62.3,83.9
		c-22.9,33.7-38.5,70.5-47.3,110.1c-9.2,41-10,82.3-2.6,123.8c2.4,13.4,7.9,25.6,15.3,36.9c11.4,17.2,27.4,27.1,47.9,29.6
		c24.4,3,48.1,0.3,71.5-7c40.8-12.5,75.1-35,103.5-66.5c8-8.9,15.6-18.4,22.6-28.2c16-22.4,30.2-46,42.8-70.3
		c22-42.2,42.2-85.2,61.9-128.6c4.7-10.3,8.7-21,13.2-31.5c2.6-6.2,5.3-12.4,8.6-18.2c9.1-15.9,22.5-26.1,40.8-30
		c6.4-1.4,12-0.4,17.3,2.7c18,10.6,31.1,25.3,37.4,45.4c5.2,16.8,7,34.1,6,51.6c-1.1,19.4-2.6,38.7-3.5,58.2
		c-0.8,15.4,0.6,30.8,5.7,45.6c1.7,4.9,4.9,8.1,9.7,9.3c7.9,1.8,15.7,3.4,23.6,4.7c27.7,4.7,55.5,9.2,83.2,13.7
		c30.4,4.9,60.8,9.8,91.2,14.4c19.9,3,39.8,6,59.7,7.9c36.4,3.6,72.2,1,107.3-10.2c29.2-9.3,55-24.4,77.6-45
		c40.9-37.3,66.9-83.2,78.1-137.5c4.8-23,7.1-46.3,7.2-69.9c0.1-13.4,0.3-26.8,0.4-40.2c0.3-23.9,6.2-46.3,17.6-67.3
		c3.9-7.1,7.7-14.1,11.9-20.9c1.8-2.8,4.7-4.8,8.3-5.1c14.7-1.4,29.5-2,44.1,0c16.5,2.2,28.5,11.2,34.7,27
		c4.9,12.6,7.1,25.9,7.6,39.3c0.8,25.4,1.2,50.9-1.5,76.3c-0.2,1.3-0.3,2.6-0.4,4c-1.6,20.5-2.7,20.2,9.7,39.5
		c18.3,28.5,40.5,53.4,68.7,72.4c44.5,29.9,93.3,46.8,147.3,46c32.6-0.4,63.6-8.2,92.7-23.5c27.4-14.5,48.9-35.1,63.9-62.2
		c10.1-18.2,18.6-37.1,23.2-57.6c5.5-24.9,10.6-49.8,15.8-74.7c2.5-11.8,4.9-23.6,7.5-35.4c2.6-11.2,6.8-21.7,12.3-31.8
		c13.2-24.3,34.1-39.1,60-47.2c4.6-1.4,9.3-1.1,13.8,0.9c12.9,5.7,25.8,11.4,38.6,17c33.1,14.7,65,31.7,94.8,52.5
		c9.4,6.5,19,12.5,28.6,18.7c2.8,1.8,5.8,3.3,8.9,4.5c2.1,0.9,4.1-0.3,5.3-1.9c2.4-3.2,4.5-6.6,6.3-10.1
		c12.6-25.1,25-50.5,37.9-75.4c6.4-12.5,13.3-24.8,20.9-36.6c17-26.6,40.5-46.2,68.7-60.3c15.2-7.7,31.2-12,48-13.8
		c19.9-2.1,38.8,2,56.2,11.6c50.7,27.9,81.5,70.2,91.5,127.5c3.8,22,4.6,43.9,1.1,66c-1.6,9.9-2.8,19.9-4.1,29.8
		c-0.6,4.7-1,9.4-1.2,14c-0.4,5.4,2.6,8.4,8.6,8.6c2,0.1,4.1,0.1,6,0c20.1-0.7,40.1-1.5,60.3-2.2c2.6-0.1,5.4,0,8,0.1
		c3.9,0.2,7.8,3.4,8.8,7.1c0.5,1.9,0.9,3.9,1.4,5.8c2,8.8-0.4,15.3-8.3,20.6c-17.4,11.6-35.7,21.2-55.5,27.8
		c-28.5,9.6-57.3,18.6-85.9,27.8c-16.6,5.4-33.2,10.4-49.7,16.1c-23.5,8.1-45.7,19-66.4,32.9c-2.7,1.9-5.4,4-7.6,6.4
		c-1.2,1.3-2,3.8-1.8,5.5c0.9,4.6,2.1,9.1,3.8,13.4c23.8,61.1,62.7,110.2,116.6,147.6c20.5,14.2,42.5,25.3,65,35.8
		c9.6,4.5,19.2,5.3,29.3,2.5c22.6-6.3,45.2-12.4,67-21.3c29.1-11.8,58.4-23.5,87.4-35.7c33.9-14.4,67.9-28.7,103-39.8
		c10.9-3.4,21.8-6.4,32.8-9.4c2.6-0.7,5.3-0.9,7.9-1c1.2,0,3.4,0.5,3.5,1.2c0.4,1.8,0.4,4-0.4,5.6c-1.1,2.4-3,4.4-4.8,6.4
		c-10.3,11.6-22.1,21.4-35.2,29.8c-13.6,8.6-28,15.8-42.9,22c-24.8,10.2-49.5,20.6-74,31.2c-17.3,7.5-33.1,17.6-46.6,31.1
		c-1.4,1.4-2.8,2.9-3.7,4.7c-0.5,1-0.2,2.5,0.1,3.7c0.1,0.4,1,0.8,1.6,0.9c7.4,1.3,14.6-0.3,21.8-1.9c40.2-8.4,79-20.9,116.8-36.4
		c41.6-16.9,82.8-34.6,124.2-52c28.4-11.9,57.2-22.8,86.7-31.9c1.9-0.6,3.8-1.4,5.7-1.9c13.9-4.1,15.1-3.8,25.1,5.5
		c12.3,11.4,24.5,22.9,36.7,34.3c1.9,1.9,3.8,3.9,4.9,6.2c0.8,1.6,0.4,3.8,0.3,5.7c0,0.6-0.4,1.3-0.8,1.8
		c-10.9,13.6-21.6,27.4-33,40.5c-7.1,8.2-16.8,13.2-26.6,17.6c-21.4,9.4-42.8,19.1-64.2,28.6c-24.5,10.7-49.1,21.4-73.9,31.7
		c-25.4,10.6-49.7,23.3-73.2,37.6c-18.9,11.5-37.7,23.1-56.3,35.1c-14.7,9.5-30.4,16.5-47.4,21.4c-37.9,11.1-75.9,21.8-113.1,35.1
		c-19.6,7-39.1,13.9-58.4,21.4c-105.9,41.7-211.8,83.5-317.6,125.2c-130.2,51.3-260.2,102.8-390.6,153.8
		c-98.5,38.6-197.1,76.7-295.8,114.8c-59.9,23.1-120,46.1-180.1,68.8c-130.2,49.2-260.7,97.9-391.9,144.6
		c-97.8,34.8-195.8,68.6-294.6,100.7c-95.5,31.1-191.5,60.4-287.8,88.6c-96.4,28.1-193.1,55.2-290.2,80.6
		c-103,26.8-206.4,52.1-310.3,75.1c-64.7,14.4-129.5,28-194.7,40.3c-45.4,8.6-90.7,17.6-136.2,25.9c-27.6,5.1-55.5,9.3-83.2,13.8
		c-39.7,6.4-79.3,13-119,19c-64.2,9.6-127.9,22.9-191.5,35.8c-51.2,10.3-102.4,20.3-153.6,30.6c-25.7,5.1-51.6,7.9-77.8,7.9
		c-23.5,0.2-46.9,0-70.3-0.2c-10.8-0.1-21.4-1-31.6-4.9c-17.8-6.7-30.9-18.5-38.7-35.8c-2.2-4.9-3.8-10-5.6-15
		c-3.1-8.5-3.1-17.1-1.2-25.8c3.8-17.4,11.2-32.9,23.5-46c9.7-10.2,20.2-19.6,31.8-27.6c58.4-40.4,117.5-79.9,177.5-117.7
		c66.4-41.7,133.9-81.6,203-118.6c88.7-47.4,179.6-89.9,272.5-128.4c109.4-45.4,218.9-90.7,328.3-136.2c76.1-31.6,152-63.4,228-94.9
		c19.7-5.6,33.1-19.6,45.4-34.9c0.6-0.8,0.5-2.6,0-3.6c-0.5-1.1-1.9-1.9-3-2.3c-1.2-0.4-2.6-0.4-4-0.2c-12.7,1.1-25.3,2.2-38,3.4
		c-21.4,2-42.7,4.2-64,6.3c-16,1.6-32,3.4-48,4.5c-36.2,2.5-71.8,8.7-107.5,14.5c-29.1,4.7-58.2,9.6-87.2,14.5
		c-27.7,4.6-55.5,9.2-83.2,13.9c-28.4,4.8-56.8,9.5-85.2,14.3c-27.7,4.7-55.5,9.3-83.2,14c-27.1,4.6-54.1,9.3-81.2,13.9
		c-27.7,4.7-55.5,9.3-83.2,14c-36.3,6.2-72.6,12.4-108.9,18.9c-41.6,7.3-83,14.9-124.6,22.3c-32.3,5.8-64.6,11.6-96.9,17.5
		c-38.8,7.1-77.7,14.3-116.6,21.6c-47.4,8.9-94.8,17.9-142.1,26.9c-37.5,7.1-74.9,14.5-112.4,21.7c-38.1,7.4-76.2,14.8-114.4,22.3
		c-43.3,8.5-86.7,17-130.1,25.6c-44.7,8.8-89.3,17.7-134,26.7c-49.9,10.1-99.7,20.2-149.6,30.4c-43.3,8.7-86.7,17.4-129.9,26.3
		c-53.7,11-107.6,22.2-161.3,33.4c-47.8,10-95.7,20.1-143.5,30.3c-52.4,11.2-104.7,22.4-157.1,33.9
		c-70.6,15.6-141.2,31.4-211.7,47.3c-60.1,13.6-120.1,27.4-180.1,41.1c-73.8,16.9-147.5,33.7-221.3,50.4
		c-26.7,6.1-53.6,11.9-80.4,17.8c-22.2,4.9-44.7,8.3-67.4,10.9c-12.6,1.5-25.3,2.8-37.9,4.8c-8.6,1.3-15.6-1.3-22.2-6.7
		c-28.9-23.8-58.2-47.5-87.2-71.2c-1.6-1.2-3.2-2.6-4.6-4c-3.4-3.5-5.5-7.6-4.6-12.7c2.6-15.9,4.7-31.9,7.9-47.6
		c4.6-21.7,12-42.5,21.4-62.6c23.4-49.7,46.3-99.6,70.3-149c31.7-65.1,66.5-128.5,104.6-190.2c32-52,66.7-102.1,104.6-149.9
		c14.6-18.4,29.8-36.2,45.4-53.7c56.9-64.3,109.2-132.2,156.4-204c29.8-45.4,57.4-92.1,83.6-139.6c40.2-72.8,75.2-148.1,107.3-224.8
		c18.9-45.1,37.2-90.4,55.6-135.7c10.9-26.7,20.4-53.8,28-81.7c1.4-5.2,2.8-10.3,2-15.8c-0.1-0.6-0.4-1.8-0.7-1.8
		c-1.2-0.3-2.8-0.5-3.7,0c-2.8,1.9-5.4,4-7.9,6.1c-26.2,22.1-49.9,46.7-72,72.8c-16.5,19.4-33,38.7-49.6,58.1
		c-41,47.8-82.2,95.6-123.2,143.3c-32.3,37.6-64.7,75.2-97,112.8c-32.7,38.1-65.6,76.2-98.3,114.4c-32.4,37.6-64.8,75.2-97.2,112.6
		c-33.4,38.5-66.6,77.1-100.3,115.2c-40,45.2-80.4,89.9-120.7,134.8c-40.7,45.4-81.4,90.8-122.2,136.2c-2.6,3-5.5,5.8-8.4,8.6
		c-2.3,2.1-6.6,2-9.3-0.1c-1.6-1.2-3.1-2.6-4.6-3.9c-13.9-12.7-27.7-25.3-41.5-38.1c-3.4-3.2-6.7-6.5-9.9-10c-1.9-2-3-4.9-2.2-7.4
		c5.1-17.3,9.7-34.7,23.1-48.3c11.8-11.8,22.6-24.8,33.7-37.2c36.2-40.5,72.4-81,108.5-121.4c46.2-51.4,95.7-99.4,146.8-146
		c10.4-9.4,20.8-19,31.1-28.6c51.9-48.5,103.5-97.3,154.1-147.3c66.3-65.5,131-132.5,193.4-201.7c32.3-35.8,63.8-72.4,94.8-109.4
		c70.2-83.8,136.2-170.7,197-261.6c9.4-13.9,18.7-27.8,28-41.7c20.1-30.2,41.7-59.2,65.2-86.7c11.3-13.2,23.2-25.9,36.1-37.8
		c9.6-8.7,20.6-14.9,33.2-18.1c5.3-1.3,10.6-1.9,16-0.8c13.6,2.6,25.1,9.1,34.9,18.7c2.8,2.7,5,6.4,6.6,10
		c8.2,18.1,11.8,36.8,8.8,56.7c-2.2,14.6-6,28.9-11.6,42.5c-4.4,10.5-9.1,20.9-14,31.1c-29.3,61-58.8,121.9-88.2,182.8
		c-25.1,51.9-50.1,103.8-75.2,155.6c-8.2,16.9-14.9,34.4-20.6,52.2c-1.2,3.8-2,7.8-2.6,11.7c-0.2,0.9,1.1,2.1,1.9,3
		c0.4,0.4,1.5,0.6,1.9,0.4c2.2-1.4,4.5-2.9,6.5-4.7c7.7-6.5,15.3-13.1,22.9-19.7c75.7-65.1,151.2-130.5,227.2-195.2
		c44.5-37.8,90.5-73.4,138.4-106.9c37.3-26.2,78.1-43.9,122.7-52.6c11.1-2.2,22.5-4,33.9-4.3c16.9-0.5,33.4,2.8,48.6,10.4
		c11.6,5.8,21,14.3,28.3,25c8.1,11.7,13.3,24.8,16.2,38.6c5.2,24.5,5.3,49.2,2.6,73.9c-7.1,64.2-23.7,126.3-44.7,187.3
		c-11.3,32.9-22.8,65.8-31.6,99.5c-2.6,9.7-5.2,19.4-7.5,29.2c-1.3,5.8-2.3,11.8-3,17.8c-3.1,24.7,1.2,47.9,13.1,69.9
		c8.3,15.4,17.7,30,26.9,44.7c20.5,33.1,20.8,19.6,0.4,53.7c-7.6,12.6-16.2,24.5-24.6,36.7c-2.4,3.4-7.1,4.4-10.8,2.7
		c-1.9-0.9-3.6-1.7-5.4-2.7c-22.5-13.6-43.3-29.3-61.3-48.5c-18.1-19.3-32.3-41-40.2-66.5c-3.8-12.2-6.3-24.6-7-37.4
		c-1.9-33.8,1.8-67,10.8-99.4c9-32.9,18.4-65.7,27.9-98.6c11.8-40.5,23.9-80.9,35.9-121.3c5.9-20,9.7-40.3,10.8-61.2
		c0.4-8.6,1.6-17.3,2.3-26c0.4-4-4-7.6-8.1-6.6c-15,3.4-30.1,6.6-44.8,10.9c-60.7,17.5-118.7,41.7-173.8,72.5
		c-39.3,21.9-76.9,46.3-112.9,73.1c-62.6,46.3-121.3,97.2-176.7,151.9c-43.9,43.3-85.5,88.9-125.3,136
		c-32,37.9-62.1,77.3-91.8,117.1c-35.2,47.4-67.8,96.4-99.9,146c-33.9,52.3-65.5,106-96.5,160c-34.1,59.2-66.2,119.6-98.2,179.9
		c-34.9,65.7-67.5,132.5-98.2,200.2c-23.8,52.4-47.3,105-70.9,157.6C1646.4,3563.8,1643,3569.6,1642.3,3576.6z M6348,2963.6
		L6348,2963.6c-32.1,0.1-64.3-0.4-96.4,0.3c-34.9,0.7-69.7,1.7-104.4,4.1c-41.4,2.8-82.7,7.7-123.5,15.4
		c-28.3,5.4-56.2,12.3-83.9,20.3c-3.2,0.9-6.3,2.5-8.9,4.4c-1.3,1-2.1,3.5-1.9,5.2c0.4,2.6,1.6,5.1,2.8,7.4
		c8.7,15.8,17.6,31.6,26.5,47.4c15.9,28.7,31.8,57.4,47.7,86.1c0.6,1.1,1.4,2.3,1.9,3.5c2,4.4,2.6,9.1,1,13.7
		c-4.6,12.6-10.1,24.8-17.7,35.9c-3.5,5.2-8.3,8.8-14.4,10.3c-4.5,1.1-9.2,2.4-13.8,2.6c-9.4,0.3-18.7-0.2-28.1-0.4
		c-11.1-0.3-18.1-5.6-23.6-15.6c-30.8-56.4-62.3-112.5-93.5-168.7c-2.3-4.1-4.5-8.2-6.9-12.3c-2.6-4.4-6.8-6.3-11.8-6.4
		c-2.6,0-5.4,0.1-8,0.4c-36,3.6-72,7.1-107.9,11c-37.2,4.1-74.5,8.9-111.9,11.9c-16.1,1.3-32,2.6-48,4.2c-36,3.5-72.1,6.4-108.3,7.5
		c-39.5,1.3-78.9,4.6-118,10.5c-43.1,6.6-85.5,16-127.5,27.4c-65.9,18.2-130,41.7-193.1,67.8c-102.2,42.3-201.9,89.7-299.8,140.8
		c-94.9,49.7-188,102.8-280.4,157.1c-61.8,36.3-123.5,72.9-185,109.6c-86.8,51.8-174.1,102.9-262.3,152.6c-4.7,2.6-9.3,5.4-13.8,8.3
		c-12,7.6-22.1,17.4-31,28.4c-2.2,2.7-1.1,6.5,2.5,8c1.2,0.5,2.5,1,3.7,1.5c15.1,6.5,30.9,7.9,47.2,7.6
		c76.3-1.6,152.7-2.7,229.1-4.7c24.1-0.6,48.2-2.5,72.2-4.9c34-3.6,67.8-8.2,101.5-13.9c52.2-8.9,104.4-16.9,156.5-26
		c62.7-11,125-23.3,187.2-36.4c99.5-21,198.7-43.8,297.4-68.6c96.1-24.1,191.7-49.9,287-77.1c97.2-27.7,194-56.9,290.2-87.5
		c183.1-58.2,365.2-119.1,545.9-184.3c141.6-51.2,282.4-104.7,421.9-161.6c65.7-26.7,131-54.5,196.3-82.5
		c96-41.1,191-84.4,285.4-129.3c148.2-70.5,294.2-145.2,437.6-224.9c11.7-6.5,23.2-13.4,34.4-20.6c7.3-4.7,14.1-10.1,20.9-15.5
		c4.4-3.5,4.7-8,1.2-12.2c-1.3-1.5-2.6-3-4.1-4.4c-3.9-4.2-8.6-6.4-14.4-4.9c-5.2,1.4-10.3,2.7-15.4,4.3
		c-94.7,29.1-189.3,58.3-284,87.5c-95.9,29.6-191.8,59.2-287.8,88.9c-65.2,20.1-130.4,40.2-195.6,60.4c-21.7,6.7-43.3,14-65.2,20.1
		c-10.3,2.8-15.9,8.6-19.1,18.3c-3.9,11.4-8.5,22.6-12.8,33.8c-2.6,6.9-5.3,13.8-7.7,20.7c-2.2,6.5-6.7,9.8-13.2,10.7
		c-5.3,0.8-10.6,1.5-16,1.9c-6.7,0.5-13.4,0.4-20,1.2c-30,3.3-60.2,3.5-90.4,3.6C6433.7,2963.6,6390.9,2963.6,6348,2963.6z
		 M5967.8,2900.6c0-0.2,0-0.3,0-0.4c3.4-0.3,6.7-0.5,10.1-0.7c23.4-1.5,46.8-2.8,70.2-4.4c18.7-1.3,37.4-2.9,56.1-4.4
		c21.4-1.8,42.7-3.5,64.1-5.3c11.4-1,22.7-2.1,34-3.2c18-1.8,36-3.4,54-5.3c16.7-1.8,33.3-4,49.9-6c26.6-3.2,53.2-5.9,79.8-9.6
		c40.4-5.7,80.7-12.4,121.2-18.3c43.1-6.3,85.9-13.9,128.7-22.1c76.9-14.8,153.4-31.5,229.4-50.5c120.8-30.2,239.9-66.1,357.3-108
		c67.5-24.1,134-50.6,200-78.4c9.3-3.9,18.4-8,27.4-12.4c5.1-2.6,5.7-5.6,2.3-9.5c-4.4-5-9.4-9.6-14.2-14.2
		c-27.7-26.3-55.4-52.6-83-78.9c-35.5-33.7-70.9-67.4-106.3-101c-1.5-1.4-2.9-2.7-4.4-4.1c-4.2-4.1-9.4-5.1-14.8-3.3
		c-9.5,3.1-19,6.4-28.5,9.7c-128.5,44.1-257,88.2-385.4,132.3c-94.3,32.4-188.6,64.9-282.8,97.2c-91.8,31.5-183.5,62.9-275.3,94.4
		c-116.5,40-232.9,80-349.4,120.1c-4.4,1.5-8.9,3-13.2,4.7c-1.9,0.7-3.6,1.8-5.3,2.7c-2.8,1.6-4.8,5.4-4,8.6
		c5.4,21.4,10.9,42.8,16.5,64.2c0.4,1.2,1.1,2.4,1.9,3.5c1.4,2.5,3.4,4.2,6.3,4.4c4,0.4,8,0.5,12,0.4
		C5937,2902.1,5952.4,2901.3,5967.8,2900.6z M4116.9,3146.6c-39.4,2-79,3.9-118.4,6c-21.4,1.1-42.8,2.7-64.2,4.1
		c-21.4,1.5-42.8,2.9-64.2,4.6c-28.1,2.2-56.1,4.6-84.1,7c-20.7,1.8-41.4,3.4-62,5.3c-24.7,2.1-49.4,4.2-74,6.4
		c-20.6,1.9-41.4,3.8-62,5.7c-22,2-44,4.1-66,6.4c-19.3,1.9-38.6,3.8-58,5.8c-18,1.9-35.9,4.1-53.9,6.2c-17.3,1.9-34.7,3.6-52,5.6
		c-28,3.4-55.9,6.8-83.7,10.3c-23.9,3.1-47.8,6.1-71.7,9.6c-31.1,4.6-62.2,9.4-93.3,14.4c-35.7,5.7-71.5,11.2-107,17.6
		c-51.4,9.4-102.5,19.7-153.5,30.9c-62.7,13.9-125.1,29.2-187.1,46.3c-97.4,27-193.4,58.4-288.5,93
		c-112,40.7-223.8,81.7-335.7,122.7c-5.6,2-11.2,4.3-16.8,6.6c-1.8,0.8-3.5,1.9-4.9,3.2c-0.9,0.8-1.8,2.6-1.5,3.5
		c1.2,4.4,2.8,8.8,4.5,13.1c1.3,3.5,4.1,5.2,7.8,5.1c3.4-0.1,6.7-0.3,10-0.9c34.9-6.8,69.6-13.8,104.4-20.6
		c44.7-8.8,89.3-17.7,134-26.6c50.6-10,101.1-19.8,151.8-29.7c44.7-8.8,89.3-17.7,134-26.6c44-8.6,88.1-17.1,132-25.8
		c38.1-7.5,76.2-15,114.3-22.5c38.1-7.5,76.2-15,114.3-22.5c43.3-8.6,86.7-17.2,130-25.7c50.6-10,101.2-19.8,151.8-29.7
		c45.4-8.9,90.6-17.9,135.9-26.8c49.9-9.8,99.9-19.6,149.7-29.4c45.4-8.9,90.6-17.9,135.9-26.8c44.7-8.8,89.3-17.6,134-26.5
		c43.3-8.6,86.7-17,130.1-25.6c38.1-7.5,76.2-15.1,114.3-22.5c44-8.6,88.1-17.1,132.1-25.8c33.5-6.5,67-13.2,100.4-19.9
		c3.3-0.6,6.4-1.9,9.4-3c1.5-0.5,2.1-1.8,1.7-3.3c-0.1-0.4-0.7-1.1-1.1-1.1c-4-0.3-8-0.6-12-0.7
		C4194.5,3143.9,4155.7,3144.7,4116.9,3146.6z M5859.7,2532.4c0.4,6.9,0.7,11.6,1.1,16.2c1.2,16.1,2.5,32,3.6,48.1
		c0.4,5.4,0.7,10.7,1.1,16.1c2,26,4.1,52.1,6,78.1c1.7,21.4,3.2,42.7,4.9,64.2c0.2,2,0.7,4,1.1,5.9c0.4,1.9,4,4.7,6,4.7
		c2.6-0.1,5.4,0.1,7.9-0.4c14.4-3.2,28.8-6.4,43.1-9.8c43-10.1,85.2-22.9,127.5-36c154.8-47.7,307.7-101,458.9-158.8
		c54.4-20.8,108.4-42.5,160.8-68c7.9-3.8,15.4-8.1,23-12.3c1.7-1,3.3-2.3,4.6-3.8c0.7-0.9,1.2-2.5,1-3.5c-0.4-1.1-1.6-2.3-2.7-2.6
		c-2.6-0.8-5.2-1.3-7.9-1.6c-24.1-2.2-47.7-6.6-71.1-12.7c-51.4-13.6-97.2-37.9-135.5-75.2c-3.8-3.7-7.8-7.4-11.7-10.9
		c-2.8-2.6-6-2.4-8.9,0.2c-8.7,7.5-15.7,16.4-21.7,26.2c-6.6,10.9-13.3,21.7-20.3,32.4c-18.7,28.9-40.7,54.9-67.1,77
		c-41,34.4-88.2,55.5-141.3,62.7c-31.3,4.2-62.9,3.3-94.2-0.7c-24.5-3.1-49-7.7-73.2-12.8c-57.6-12.3-115.2-24.6-172.8-36.8
		c-5.2-1.1-10.6-1.5-15.9-2.1c-2-0.3-5.6,2.8-5.7,4.9C5860.1,2525.2,5859.9,2529.9,5859.7,2532.4z M6972,2407.8
		c-0.2,0,1.9,0.2,3.8-0.4c3.9-1.1,7.7-2.5,11.4-3.8c80.4-29.6,160.8-59,241.1-88.6c4.4-1.6,8.6-3.6,12.9-5.5c2.1-1,3.6-4.9,2.6-6.9
		c-2.2-4.1-4.2-8.3-6.9-12.2c-19.8-29.5-45.8-52.4-76.1-70.4c-30.5-18.1-63-32.6-94.9-48.2c-2-1-5.8,0.4-7,2.5
		c-1,1.8-2.2,3.4-2.9,5.3c-2.6,6.2-4.9,12.4-7.4,18.6c-24.8,61.4-49.6,122.9-74.3,184.3c-2.7,6.8-4.9,13.9-7.4,20.7
		C6966.5,2405,6968.4,2407.8,6972,2407.8z M5584.1,2951.6c5.7-0.4,11-0.7,16.3-1.4c23.9-2.8,47.7-5.8,71.7-8.7
		c29.8-3.7,59.7-7.4,89.5-11.3c9.9-1.3,19.8-3,29.6-4.7c2-0.4,4.2-4.4,3.7-6.4c-0.4-1.3-0.4-2.6-1-3.9
		c-7.1-15.8-14.4-31.6-21.6-47.4c-0.5-1.2-1.1-2.6-2.2-3.3c-1.6-1.1-3.6-2.1-5.5-2c-2.6,0.1-5.2,0.9-7.8,1.8
		c-20.7,7.3-41.6,14.7-62.3,22.1c-34,12.2-67.9,24.3-101.8,36.4c-6.3,2.3-12.4,4.9-18.5,7.5c-3.9,1.7-5.6,5.1-5.1,9.9
		c0.6,7.2,3.4,11,11.3,11.2C5581.9,2951.7,5583.2,2951.6,5584.1,2951.6z M7364.8,2171c2,0,4,0.1,6,0c20.5-0.7,37.4-8.8,50.7-24.5
		c7.4-8.7,13.2-18.4,16.7-29.5c9.4-30.5,1.6-50.3-21.6-66.4c-1.1-0.8-2.3-1.4-3.4-2.1c-6.1-4.1-12.4-4.6-18.9-1.1
		c-17.6,9.2-32.2,21.7-41.9,39.1c-12.7,22.7-18.3,47.2-16.4,73.2c0.3,3.5,2.1,6.1,5.5,7.7C7348.8,2170.6,7356.8,2171,7364.8,2171z
		 M4494.9,1926.4c-1.1-0.6-2.4-1.9-3.3-1.7c-2.6,0.5-5.1,1.3-7.3,2.6c-30.5,18.3-58.6,39.7-83.7,64.9
		c-36.8,36.9-63.8,80.3-84.6,127.9c-0.5,1.1-0.7,2.7-0.3,3.9c0.4,1,2,2.3,2.6,2.1c2.5-0.7,5-1.6,7.1-3
		c29.2-20.2,56.4-42.7,81.9-67.4c17.3-16.8,33.1-34.9,47.4-54.2c16.3-22.1,29.1-46.3,40.2-71.4
		C4495.5,1929.2,4495,1927.7,4494.9,1926.4z"/>
	<path class="st0" d="M101,3004.5c0.6-36.3,2.4-72.4,5.4-108.4c5.3-64.2,16.5-127.5,33-189.8c36.7-138.5,77.8-275.8,124.1-411.5
		c28.3-83,58.1-165.5,90.7-247c32.1-80.2,64.9-160.2,100.9-238.7c29.9-65.1,60.2-130.1,92.9-193.9c31.9-61.9,64-123.8,98.7-184.2
		c30.3-52.9,60.6-105.8,93-157.4c32.4-51.6,64.9-103.3,99.4-153.5c30-43.6,60.2-87.1,91.5-129.7c33.4-45.4,67.6-90,102.4-134.2
		c28.1-35.8,57.3-70.9,86.7-105.7c63.7-75.3,130.9-147.3,201.5-216c58.7-57,119.8-111.3,183.5-162.6
		c93.1-74.9,191-142.7,294.4-202.8c16.2-9.4,32.6-18.5,49.2-27.4c44.9-24.3,91.7-44,140.2-59.7c15.4-4.9,30.8-9.1,46.7-11.7
		c23.4-3.9,46.6-3.9,69.9,1.1c33.1,7.1,59.1,24.5,77.1,53.2c12.3,19.5,20,40.6,23.1,63.6c4.5,33.8,1.3,67.1-6.9,99.7
		c-18.5,74-48.6,143.2-90.6,207c-21,31.9-43.9,62.6-69.5,91c-61,67.8-121.8,135.6-183.2,203c-42.9,47-86.5,93.4-130.2,139.8
		c-63.5,67.2-127.9,133.7-192.9,199.4c-64.6,65.2-130.2,129.5-196.1,193.5c-25.9,25.2-52,50.4-77.9,75.6
		c-74.5,72.4-149,144.8-223.3,217.3c-14.9,14.5-29.6,29.2-44.2,43.9c-26.6,26.6-45.4,58-56.9,93.5c-9.9,30.5-18.4,61.6-27.9,92.3
		c-17.7,57.6-34.9,115.4-53.7,172.6c-30.7,93.5-61.8,187-95.9,279.3c-31.1,84.2-62.2,168.4-96.3,251.4
		c-30,73.1-59.3,146.6-92.4,218.3c-33.9,73.7-70.3,146-109.2,217.2c-25.8,47-50.9,94.3-76.2,141.6c-9.5,17.7-20.3,34.7-32.5,50.7
		c-13.8,18.3-29.5,34.8-48.1,48.3c-23.6,17.1-49.8,28.7-78.5,34.1c-8.2,1.6-16.1,1.1-23.6-1.9c-33.7-13.5-59.6-35.4-75-68.9
		c-6.3-13.5-10.9-27.4-13.7-41.9c-2.4-11.8-4.3-23.8-4.9-35.8C103.6,3074.1,102.4,3039.3,101,3004.5z M207.2,2998.6
		c-0.6,36.2,1.4,66.9,7,97.3c1.8,9.8,3.2,19.9,7.9,28.9c0.7,1.4,3.8,2.8,5.1,2.1c4.1-2.2,8.5-4.1,12.2-6.8
		c20.2-14.3,40-29.3,58.4-46c48-43.3,90-91.9,125-146.3c15.6-24.2,30.8-48.7,45.5-73.4c36.8-61.6,69.1-125.6,99.2-190.7
		c35.5-76.7,65.3-155.6,92.8-235.3c37.2-107.7,66.3-217.8,92.9-328.4c14.1-58.6,23.9-118.1,35.5-177.3c0.8-4,1.2-7.9,1.9-11.9
		c0.4-3.4-0.6-6.5-2.3-7.1c-3.2-1.1-4.9,1.3-6.8,2.9c-6.6,5.6-13.1,11.5-19.6,17.3c-26.3,24.1-49.4,51-70.9,79.3
		c-21.1,27.8-41,56.3-59.1,86.1c-14.9,24.6-29.5,49.5-43.9,74.5c-20.4,35.4-40.5,70.9-60.9,106.4c-17.3,30.2-35.4,60-54.7,89
		c-3.4,5-6.8,10-10.4,14.8c-1.1,1.6-2.6,3.2-4.4,4c-1.7,0.8-4,1.1-5.6,0.4c-2.5-0.9-4.8-2.5-6.9-4.1c-21.7-16.8-43.4-33.6-65.1-50.5
		c-2.1-1.7-4.1-3.4-6.1-5.3c-2.5-2.3-3.3-6.5-1.8-9.2c1.3-2.3,2.7-4.6,4.2-6.8c36.9-51.9,73.6-103.9,110.7-155.6
		c17.6-24.5,36.7-47.9,56.6-70.5c27.4-31.2,55.2-62.2,82.8-93.2c7.1-8,14.4-16,21.7-23.7c39-41.6,77.8-83.2,117.1-124.4
		c35.1-36.9,57.7-80.1,67.9-130c3.6-17.7,7.6-35.4,11.6-52.9c8.1-35.9,16.3-71.8,24.6-107.7c16.6-71.7,33.6-143.4,51.9-214.8
		c4-15.6,9.4-30.7,16.3-45.3c9.4-19.3,18.6-38.6,28-57.9c1.1-2.4,2.4-4.8,3.7-7.1c2.5-4.4,6.2-5.1,9.8-2c1.5,1.3,3.1,2.6,4.5,4
		c14.7,13.7,29.1,27.7,44.2,41c7.8,6.9,12.2,14.1,8.1,24.6c-0.3,0.6-0.4,1.3-0.4,1.9c-13.1,60.9-26.2,121.8-39.4,182.6
		c-7,32-14,64.1-21,96.2c-1.1,5.2-2.1,10.5-1.1,15.9c0.4,1.5,3.1,3.2,4.6,2.4c2.9-1.6,6-3.1,8.6-4.9c32.6-23.5,64.7-47.7,94.2-75.1
		c22.6-20.9,45.2-41.9,67.6-63.1c25.9-24.4,51.4-49.1,77.3-73.3c69.4-65.1,138.7-130.2,206.6-197c56.8-55.9,112.4-113.1,166-172.2
		c45.1-49.7,88.1-101,129.5-153.6c31.9-40.5,62.3-82.2,91.9-124.6c33.4-47.7,66.2-96,98.1-144.7c44.5-67.8,88.1-136.2,131.8-204.4
		c6.9-10.7,13.2-21.8,19.3-32.9c8.3-15.4,14.9-31.4,19.9-48.2c7.2-24.2,8.3-48.8,5.6-73.7c-1.1-10-3.7-19.8-7.3-29.1
		c-1.5-4-4.1-6.8-7.8-8.8c-22.8-12.2-46.9-19.5-72.9-20.2c-24.4-0.7-48,3.7-71.3,10.1c-49.9,13.7-97.5,33.4-143.9,56
		c-68.3,33.2-132.2,73.7-193.1,118.9c-64.7,47.9-125.7,100.3-184.9,154.8c-66.6,61.2-130.6,125.2-191.9,191.8
		c-67.7,73.4-132.1,149.7-193.2,228.8c-32.4,41.9-63.9,84.4-94.9,127.3c-38.5,53.2-75.2,107.7-110.7,162.8
		c-27.3,42.2-53.8,84.8-80.2,127.6c-33.7,54.8-65.5,110.7-96.9,166.8c-34.3,61.4-65.8,124.2-96.7,187.4
		c-34.1,69.8-64.9,141.2-94.3,213.1c-36.6,89.3-68.1,180.4-97.4,272.2c-18.7,58.7-34.9,118.2-50.2,177.8
		c-16.8,65.6-31.2,131.6-44.4,197.9c-10.5,52.5-18.6,105.5-26.2,158.6c-7.9,55.1-15.4,110.1-20,165.5c-1.2,14.6-2.4,29.4-4.4,44
		C208.8,2949,208.7,2976.4,207.2,2998.6z"/>
	<path class="st0" d="M1623.2,1828.3c13.8,0.2,26.3,1.2,38.9,3.7c18,3.5,17.7,2.7,28.7-11.2c35.6-45.4,70.7-91.1,106.9-135.8
		c48.5-59.8,99.3-117.9,153.1-173c42.2-43.2,86-84.5,132.3-123.3c60.7-50.8,125-96.8,193.8-136.2c22.7-13,46-24.7,69.1-36.9
		c3.5-1.9,7.2-3.5,11-4.7c1.6-0.4,3.9,0.4,5.6,1.2s3.2,2.4,4.5,3.9c13.9,16.2,27.9,32.6,41.8,48.9c1.3,1.5,2.4,3.2,3.5,4.9
		c1.3,1.9,1.1,6-0.5,7.5c-4.5,4.1-8.9,8-13.6,11.9c-58.9,48.5-119,95.7-179,143c-68.5,53.8-137,107.6-205.4,161.5
		c-67.9,53.5-135.6,107.2-203.4,160.8c-13.1,10.4-25.5,21.7-36.9,34.1c-21,22.6-41.9,45.2-63,67.7c-4.9,5.1-7.8,10.8-7.8,17.9
		c0,2.6-0.2,5.4-0.2,8c0.1,60.4-12.4,118.3-33.8,174.5c-14.6,38.2-31.9,75.2-52.6,110.6c-29.1,49.7-58.4,99.3-87.9,148.8
		c-22.6,37.9-45.6,75.7-68.5,113.6c-25.2,41.9-52.2,82.7-79.9,122.9c-26.3,38.1-54.8,74.4-84.9,109.5
		c-36.3,42.4-76.3,80.8-119.7,115.8c-46,37-92.8,72.7-140,108c-25.8,19.2-51.4,38.7-77,58.1c-11.8,8.8-23.7,17.6-35.6,26.1
		c-4.2,3-9,2.1-12.5-1.9c-1.8-2-3.4-4.1-5-6.3c-8.2-10.6-16.3-21.3-24.4-31.9c-4.9-6.4-9.8-12.7-14.6-19.1c-2-2.6-3.8-5.6-5.5-8.4
		c-1.8-2.9-1.2-6.6,1.2-9.3c1.9-1.9,3.8-3.8,5.6-5.6c34.9-34.4,72.5-65.6,112.1-94.5c38.4-28.1,75.9-57.4,112.2-88.2
		c51.2-43.5,99.1-90.2,142.3-141.5c4.3-5.1,8.4-10.5,12.7-15.5c4.9-5.7,5.2-11.7,2.3-18.6c-8.2-19.9-14.9-40.2-19-61.3
		c-5.5-28.4-7.4-56.9-4.5-85.9c3.9-38.2,13-75.1,25.1-111.4c18.2-54,39.4-106.8,65.5-157.5c27.6-53.7,58.9-105.3,97.8-151.7
		c20.6-24.7,42.9-47.9,66.9-69.4c17.6-15.7,36.3-29.6,57.1-40.8c16.6-8.9,34-15.6,52.5-19.6
		C1601.5,1828.8,1612.9,1828.7,1623.2,1828.3z M1340.5,2389c0.4,4.9,0.3,11.7,1.3,18.3c1,5.6,0,12.1,5,16.6
		c8.3,0.8,10.6-6.9,15.2-11.1c3.9-3.6,7.1-7.9,10.6-12.1c27.5-33.8,52.9-69.1,75.4-106.3c31.7-52.2,57.4-107.4,80.1-164
		c19-47.2,34.3-95.7,48.2-144.6c1.4-5,3.9-10.1,3-15.5c-0.3-1.6-1.5-2.6-3-1.9c-3,1.3-6.2,2.6-8.6,4.5
		c-30.5,24.2-58.2,51.4-83.2,81.2c-21.1,25.1-40,52-57.6,79.7c-32.9,51.8-57.8,107-73.6,166.3
		C1345.6,2328.6,1341.6,2357.8,1340.5,2389z"/>
	<path class="st0" d="M3230,1636.3c1.3-7.9,2.3-15.9,4.1-23.6c1.7-7.4,6.1-13.2,12.5-17.5c5.6-3.7,11.6-6.3,18.1-8.5
		c12.1-4.1,22.4-1,31.8,6.7c3.1,2.6,5.8,5.6,8.4,8.6c8.2,10.1,13.1,21.7,16.6,34.1c1,3.4,0.1,6.8-2.2,9.4
		c-11.8,13.8-24.8,26.4-40.9,35c-3.4,1.9-7.4,3.4-11.2,4c-13.3,2.4-21.8-1.6-28.7-13.2c-2-3.4-3.7-7.1-4.8-11
		C3231.6,1652.5,3230.4,1644.5,3230,1636.3z"/>
</g>
</svg>
